<svg xmlns="http://www.w3.org/2000/svg" xmlns:xlink="http://www.w3.org/1999/xlink" width="500" zoomAndPan="magnify" viewBox="0 0 375 374.999991" height="500" preserveAspectRatio="xMidYMid meet" version="1.0"><defs><clipPath id="b350f8be09"><path d="M 10.617188 10.617188 L 364.382812 10.617188 L 364.382812 364.382812 L 10.617188 364.382812 Z M 10.617188 10.617188 " clip-rule="nonzero"/></clipPath><clipPath id="b951ad9d70"><path d="M 18.117188 10.617188 L 356.882812 10.617188 C 361.027344 10.617188 364.382812 13.972656 364.382812 18.117188 L 364.382812 356.882812 C 364.382812 361.027344 361.027344 364.382812 356.882812 364.382812 L 18.117188 364.382812 C 13.972656 364.382812 10.617188 361.027344 10.617188 356.882812 L 10.617188 18.117188 C 10.617188 13.972656 13.972656 10.617188 18.117188 10.617188 Z M 18.117188 10.617188 " clip-rule="nonzero"/></clipPath><clipPath id="d6c0c04c2f"><path d="M 0.617188 0.617188 L 354.382812 0.617188 L 354.382812 354.382812 L 0.617188 354.382812 Z M 0.617188 0.617188 " clip-rule="nonzero"/></clipPath><clipPath id="94f4ab8374"><path d="M 8.117188 0.617188 L 346.882812 0.617188 C 351.027344 0.617188 354.382812 3.972656 354.382812 8.117188 L 354.382812 346.882812 C 354.382812 351.027344 351.027344 354.382812 346.882812 354.382812 L 8.117188 354.382812 C 3.972656 354.382812 0.617188 351.027344 0.617188 346.882812 L 0.617188 8.117188 C 0.617188 3.972656 3.972656 0.617188 8.117188 0.617188 Z M 8.117188 0.617188 " clip-rule="nonzero"/></clipPath><clipPath id="0294bcc1b3"><rect x="0" width="355" y="0" height="355"/></clipPath><clipPath id="f736f09ee5"><path d="M 10.617188 10.617188 L 364.496094 10.617188 L 364.496094 57.628906 L 10.617188 57.628906 Z M 10.617188 10.617188 " clip-rule="nonzero"/></clipPath><clipPath id="daffe27868"><path d="M 18.117188 10.617188 L 356.882812 10.617188 C 361.027344 10.617188 364.382812 13.972656 364.382812 18.117188 L 364.382812 50.128906 C 364.382812 54.269531 361.027344 57.628906 356.882812 57.628906 L 18.117188 57.628906 C 13.972656 57.628906 10.617188 54.269531 10.617188 50.128906 L 10.617188 18.117188 C 10.617188 13.972656 13.972656 10.617188 18.117188 10.617188 Z M 18.117188 10.617188 " clip-rule="nonzero"/></clipPath><clipPath id="ce82c5bd73"><path d="M 0.617188 0.617188 L 354.496094 0.617188 L 354.496094 47.628906 L 0.617188 47.628906 Z M 0.617188 0.617188 " clip-rule="nonzero"/></clipPath><clipPath id="47ccc9a5b9"><path d="M 8.117188 0.617188 L 346.882812 0.617188 C 351.027344 0.617188 354.382812 3.972656 354.382812 8.117188 L 354.382812 40.128906 C 354.382812 44.269531 351.027344 47.628906 346.882812 47.628906 L 8.117188 47.628906 C 3.972656 47.628906 0.617188 44.269531 0.617188 40.128906 L 0.617188 8.117188 C 0.617188 3.972656 3.972656 0.617188 8.117188 0.617188 Z M 8.117188 0.617188 " clip-rule="nonzero"/></clipPath><clipPath id="5d87ec6b73"><rect x="0" width="355" y="0" height="48"/></clipPath><clipPath id="cd165f1928"><path d="M 320.949219 16.820312 L 355.550781 16.820312 L 355.550781 51.425781 L 320.949219 51.425781 Z M 320.949219 16.820312 " clip-rule="nonzero"/></clipPath><clipPath id="2a68082bdd"><path d="M 328.449219 16.820312 L 348.050781 16.820312 C 352.195312 16.820312 355.550781 20.175781 355.550781 24.320312 L 355.550781 43.925781 C 355.550781 48.066406 352.195312 51.425781 348.050781 51.425781 L 328.449219 51.425781 C 324.304688 51.425781 320.949219 48.066406 320.949219 43.925781 L 320.949219 24.320312 C 320.949219 20.175781 324.304688 16.820312 328.449219 16.820312 Z M 328.449219 16.820312 " clip-rule="nonzero"/></clipPath><clipPath id="822b714dc8"><path d="M 0.949219 0.820312 L 35.550781 0.820312 L 35.550781 35.425781 L 0.949219 35.425781 Z M 0.949219 0.820312 " clip-rule="nonzero"/></clipPath><clipPath id="4702f5a1d6"><path d="M 8.449219 0.820312 L 28.050781 0.820312 C 32.195312 0.820312 35.550781 4.175781 35.550781 8.320312 L 35.550781 27.925781 C 35.550781 32.066406 32.195312 35.425781 28.050781 35.425781 L 8.449219 35.425781 C 4.304688 35.425781 0.949219 32.066406 0.949219 27.925781 L 0.949219 8.320312 C 0.949219 4.175781 4.304688 0.820312 8.449219 0.820312 Z M 8.449219 0.820312 " clip-rule="nonzero"/></clipPath><clipPath id="104207c09b"><rect x="0" width="36" y="0" height="36"/></clipPath><clipPath id="735eae44ae"><path d="M 277.542969 16.820312 L 312.144531 16.820312 L 312.144531 51.425781 L 277.542969 51.425781 Z M 277.542969 16.820312 " clip-rule="nonzero"/></clipPath><clipPath id="38487ed419"><path d="M 285.042969 16.820312 L 304.644531 16.820312 C 308.789062 16.820312 312.144531 20.175781 312.144531 24.320312 L 312.144531 43.925781 C 312.144531 48.066406 308.789062 51.425781 304.644531 51.425781 L 285.042969 51.425781 C 280.898438 51.425781 277.542969 48.066406 277.542969 43.925781 L 277.542969 24.320312 C 277.542969 20.175781 280.898438 16.820312 285.042969 16.820312 Z M 285.042969 16.820312 " clip-rule="nonzero"/></clipPath><clipPath id="c0aae41b6e"><path d="M 0.542969 0.820312 L 35.144531 0.820312 L 35.144531 35.425781 L 0.542969 35.425781 Z M 0.542969 0.820312 " clip-rule="nonzero"/></clipPath><clipPath id="d7fdcfb1a0"><path d="M 8.042969 0.820312 L 27.644531 0.820312 C 31.789062 0.820312 35.144531 4.175781 35.144531 8.320312 L 35.144531 27.925781 C 35.144531 32.066406 31.789062 35.425781 27.644531 35.425781 L 8.042969 35.425781 C 3.898438 35.425781 0.542969 32.066406 0.542969 27.925781 L 0.542969 8.320312 C 0.542969 4.175781 3.898438 0.820312 8.042969 0.820312 Z M 8.042969 0.820312 " clip-rule="nonzero"/></clipPath><clipPath id="68885c0392"><rect x="0" width="36" y="0" height="36"/></clipPath><clipPath id="5c475a8722"><path d="M 234.886719 16.820312 L 269.488281 16.820312 L 269.488281 51.425781 L 234.886719 51.425781 Z M 234.886719 16.820312 " clip-rule="nonzero"/></clipPath><clipPath id="79c4a5821f"><path d="M 242.386719 16.820312 L 261.988281 16.820312 C 266.132812 16.820312 269.488281 20.175781 269.488281 24.320312 L 269.488281 43.925781 C 269.488281 48.066406 266.132812 51.425781 261.988281 51.425781 L 242.386719 51.425781 C 238.242188 51.425781 234.886719 48.066406 234.886719 43.925781 L 234.886719 24.320312 C 234.886719 20.175781 238.242188 16.820312 242.386719 16.820312 Z M 242.386719 16.820312 " clip-rule="nonzero"/></clipPath><clipPath id="9c1f812a7b"><path d="M 0.886719 0.820312 L 35.488281 0.820312 L 35.488281 35.425781 L 0.886719 35.425781 Z M 0.886719 0.820312 " clip-rule="nonzero"/></clipPath><clipPath id="3e8dbb3214"><path d="M 8.386719 0.820312 L 27.988281 0.820312 C 32.132812 0.820312 35.488281 4.175781 35.488281 8.320312 L 35.488281 27.925781 C 35.488281 32.066406 32.132812 35.425781 27.988281 35.425781 L 8.386719 35.425781 C 4.242188 35.425781 0.886719 32.066406 0.886719 27.925781 L 0.886719 8.320312 C 0.886719 4.175781 4.242188 0.820312 8.386719 0.820312 Z M 8.386719 0.820312 " clip-rule="nonzero"/></clipPath><clipPath id="3a9b3969bd"><rect x="0" width="36" y="0" height="36"/></clipPath></defs><g clip-path="url(#b350f8be09)"><g clip-path="url(#b951ad9d70)"><g transform="matrix(1, 0, 0, 1, 10, 10)"><g clip-path="url(#0294bcc1b3)"><g clip-path="url(#d6c0c04c2f)"><g clip-path="url(#94f4ab8374)"><path fill="#3c434d" d="M 0.617188 0.617188 L 354.382812 0.617188 L 354.382812 354.382812 L 0.617188 354.382812 Z M 0.617188 0.617188 " fill-opacity="1" fill-rule="nonzero"/></g></g></g></g></g></g><g clip-path="url(#f736f09ee5)"><g clip-path="url(#daffe27868)"><g transform="matrix(1, 0, 0, 1, 10, 10)"><g clip-path="url(#5d87ec6b73)"><g clip-path="url(#ce82c5bd73)"><g clip-path="url(#47ccc9a5b9)"><path fill="#292e34" d="M 0.617188 0.617188 L 354.3125 0.617188 L 354.3125 47.628906 L 0.617188 47.628906 Z M 0.617188 0.617188 " fill-opacity="1" fill-rule="nonzero"/></g></g></g></g></g></g><g clip-path="url(#cd165f1928)"><g clip-path="url(#2a68082bdd)"><g transform="matrix(1, 0, 0, 1, 320, 16)"><g clip-path="url(#104207c09b)"><g clip-path="url(#822b714dc8)"><g clip-path="url(#4702f5a1d6)"><path fill="#3c434d" d="M 0.949219 0.820312 L 35.550781 0.820312 L 35.550781 35.425781 L 0.949219 35.425781 Z M 0.949219 0.820312 " fill-opacity="1" fill-rule="nonzero"/></g></g></g></g></g></g><g clip-path="url(#735eae44ae)"><g clip-path="url(#38487ed419)"><g transform="matrix(1, 0, 0, 1, 277, 16)"><g clip-path="url(#68885c0392)"><g clip-path="url(#c0aae41b6e)"><g clip-path="url(#d7fdcfb1a0)"><path fill="#3c434d" d="M 0.542969 0.820312 L 35.144531 0.820312 L 35.144531 35.425781 L 0.542969 35.425781 Z M 0.542969 0.820312 " fill-opacity="1" fill-rule="nonzero"/></g></g></g></g></g></g><g clip-path="url(#5c475a8722)"><g clip-path="url(#79c4a5821f)"><g transform="matrix(1, 0, 0, 1, 234, 16)"><g clip-path="url(#3a9b3969bd)"><g clip-path="url(#9c1f812a7b)"><g clip-path="url(#3e8dbb3214)"><path fill="#3c434d" d="M 0.886719 0.820312 L 35.488281 0.820312 L 35.488281 35.425781 L 0.886719 35.425781 Z M 0.886719 0.820312 " fill-opacity="1" fill-rule="nonzero"/></g></g></g></g></g></g></svg>